<svg id="SvgjsSvg1032" width="288" height="288" xmlns="http://www.w3.org/2000/svg" version="1.1" xmlns:xlink="http://www.w3.org/1999/xlink" xmlns:svgjs="http://svgjs.com/svgjs"><defs id="SvgjsDefs1033"></defs><g id="SvgjsG1034"><svg xmlns="http://www.w3.org/2000/svg" data-name="Layer 1" viewBox="0 0 24 24" width="288" height="288"><path d="M12,6a.99974.99974,0,0,0-1,1v4H9a1,1,0,0,0,0,2h3a.99974.99974,0,0,0,1-1V7A.99974.99974,0,0,0,12,6Zm0-4A10,10,0,1,0,22,12,10.01146,10.01146,0,0,0,12,2Zm0,18a8,8,0,1,1,8-8A8.00917,8.00917,0,0,1,12,20Z" fill="#89b758" class="color000 svgShape"></path></svg></g></svg>