<svg id="SvgjsSvg1012" width="288" height="288" xmlns="http://www.w3.org/2000/svg" version="1.1" xmlns:xlink="http://www.w3.org/1999/xlink" xmlns:svgjs="http://svgjs.com/svgjs"><defs id="SvgjsDefs1013"></defs><g id="SvgjsG1014"><svg xmlns="http://www.w3.org/2000/svg" viewBox="0 0 64 64" width="288" height="288"><path d="M32,8A18.52,18.52,0,0,0,13.5,26.5c0,5.78,5,13.94,7.92,18.29C23.21,47.42,29.26,56,32,56h0c2.72,0,8.77-8.58,10.56-11.21,3-4.35,7.94-12.52,7.94-18.29A18.52,18.52,0,0,0,32,8Zm0,43.62C28.62,48.49,17.5,33.87,17.5,26.5a14.5,14.5,0,0,1,29,0C46.5,33.83,35.38,48.47,32,51.62Z" fill="#e7272d" class="color000 svgShape"></path><path d="M32.11,18.92a7.61,7.61,0,1,0,7.61,7.61A7.62,7.62,0,0,0,32.11,18.92Zm0,11.22a3.61,3.61,0,1,1,3.61-3.61A3.61,3.61,0,0,1,32.11,30.14Z" fill="#e7272d" class="color000 svgShape"></path></svg></g></svg>