<svg id="SvgjsSvg1017" width="288" height="288" xmlns="http://www.w3.org/2000/svg" version="1.1" xmlns:xlink="http://www.w3.org/1999/xlink" xmlns:svgjs="http://svgjs.com/svgjs"><defs id="SvgjsDefs1018"></defs><g id="SvgjsG1019"><svg xmlns="http://www.w3.org/2000/svg" enable-background="new 0 0 512 512" viewBox="0 0 512 512" width="288" height="288"><polygon fill="none" stroke="#000" stroke-linecap="round" stroke-linejoin="round" stroke-miterlimit="10" stroke-width="21.95" points="433.504 203.401 334.368 146.023 235.076 88.799 235.076 203.401 235.076 317.85 334.368 260.625" display="none" class="colorStroke000 svgStroke"></polygon><path d="M145.022,396.382c-2.121,0-4.242-0.549-6.142-1.647c-3.796-2.194-6.134-6.245-6.134-10.629V127.895		c0-4.384,2.338-8.436,6.134-10.629c3.796-2.193,8.473-2.196,12.273-0.007l111.065,64.01l110.911,64.193
		c3.794,2.196,6.13,6.248,6.127,10.632c-0.003,4.384-2.343,8.434-6.139,10.625l-110.892,64.01l-111.072,64.014
		C149.254,395.835,147.137,396.382,145.022,396.382z M157.298,149.139v213.721l92.658-53.402l92.49-53.388l-92.509-53.542
		L157.298,149.139z" fill="#ffffff" class="color000 svgShape"></path></svg></g></svg>